<svg width="19" height="20" viewBox="0 0 19 20" fill="none" xmlns="http://www.w3.org/2000/svg">
<path d="M12.9465 12.8868L12.9378 12.881C14.1062 11.5679 14.7169 9.85108 14.6403 8.09503C14.5636 6.33899 13.8055 4.68196 12.527 3.47571C11.2485 2.26946 9.55024 1.60897 7.7927 1.63444C6.03516 1.65991 4.35674 2.36934 3.11374 3.61213C1.87074 4.85492 1.16102 6.53322 1.13525 8.29076C1.10948 10.0483 1.76968 11.7467 2.97571 13.0254C4.18174 14.3041 5.83864 15.0624 7.59468 15.1394C9.35071 15.2164 11.0676 14.606 12.3809 13.4377L12.3868 13.4465L17.1368 18.1965C17.2114 18.2686 17.3114 18.3085 17.4152 18.3076C17.519 18.3067 17.6183 18.2651 17.6917 18.1917C17.7651 18.1183 17.8067 18.019 17.8076 17.9153C17.8085 17.8115 17.7686 17.7115 17.6965 17.6368L12.9465 12.8868ZM7.91665 14.3542C6.74232 14.3542 5.59437 14.0059 4.61795 13.3535C3.64153 12.7011 2.88051 11.7738 2.43111 10.6889C1.98172 9.60392 1.86414 8.41008 2.09324 7.25832C2.32234 6.10656 2.88783 5.0486 3.7182 4.21822C4.54858 3.38785 5.60654 2.82236 6.7583 2.59326C7.91006 2.36416 9.10389 2.48174 10.1888 2.93113C11.2738 3.38053 12.2011 4.14155 12.8535 5.11797C13.5059 6.09439 13.8541 7.24234 13.8541 8.41667C13.8524 9.99086 13.2263 11.5001 12.1132 12.6132C11.0001 13.7263 9.49084 14.3525 7.91665 14.3542Z" fill="#9B9B9B"/>
</svg>
